<?xml version="1.0" encoding="UTF-8" standalone="no"?>
<!DOCTYPE svg PUBLIC "-//W3C//DTD SVG 1.1//EN" "http://www.w3.org/Graphics/SVG/1.1/DTD/svg11.dtd">
<svg width="100%" height="100%" viewBox="0 0 100 100" version="1.1" xmlns="http://www.w3.org/2000/svg" xmlns:xlink="http://www.w3.org/1999/xlink" xml:space="preserve" xmlns:serif="http://www.serif.com/" style="fill-rule:evenodd;clip-rule:evenodd;stroke-linejoin:round;stroke-miterlimit:2;">
    <g transform="matrix(-1.06392,1.06392,-1.06392,-1.06392,182.443,51.7821)">
        <clipPath id="_clip1">
            <path d="M66.011,65.619C63.38,67.874 61.782,69.284 61.218,69.848C57.505,72.715 53.228,75.206 48.435,77.274C41.385,79.999 37.344,81.221 36.263,81.08C36.31,81.033 36.357,80.986 36.451,80.892L44.957,73.326C57.082,66.089 64.977,61.859 68.784,60.684C69.912,60.12 70.523,59.885 70.617,59.979C70.664,59.932 69.113,61.859 66.011,65.619ZM32.644,78.402C32.597,78.355 32.832,78.026 33.349,77.509C36.498,74.83 38.801,72.903 40.351,71.728C40.304,71.775 40.257,71.822 40.21,71.775C43.312,68.673 52.007,63.645 66.246,56.736C70.382,55.42 72.638,54.574 73.108,54.105L73.249,53.964C74.894,50.345 73.766,46.491 69.912,42.543L69.066,41.698C63.098,35.729 55.061,32.674 45.098,32.486L27.616,49.969C20.331,57.253 20.331,69.002 27.381,76.052L31.516,80.187C31.704,79.529 32.033,79.012 32.644,78.402ZM84.763,79.67C81.097,79.294 77.337,77.603 73.39,74.501L71.087,72.01C70.617,71.164 70.006,70.083 69.254,68.767C69.066,68.955 68.925,69.19 68.643,69.472C63.897,74.031 58.163,77.791 51.443,80.751L42.419,83.947C40.21,84.652 38.284,85.075 36.545,85.216L48.247,96.918C55.531,104.202 67.28,104.202 74.565,96.918L92.987,78.496C90.684,79.2 87.959,79.67 84.763,79.67ZM55.296,29.244C62.534,31.969 67.468,34.742 70.194,37.468C70.476,37.75 71.369,38.549 72.873,39.771C74.142,41.04 75.693,43.53 77.478,47.29C77.854,48.418 77.995,50.251 77.854,52.836C77.713,52.507 78.136,52.272 79.123,52.225C84.387,51.379 89.274,52.413 93.927,55.185C95.196,55.702 96.465,56.595 97.593,57.911C98.956,59.18 99.896,60.59 100.648,62C100.413,57.629 98.627,53.306 95.243,49.922L74.565,29.244C67.468,22.147 56.189,21.959 49.093,28.492C50.926,28.633 52.993,28.915 55.296,29.244ZM95.243,60.919C91.295,57.441 86.079,56.078 79.452,56.783C78.042,57.253 77.196,57.629 76.914,57.911C75.834,60.12 74.189,62.705 72.074,65.572C72.074,65.572 72.591,66.277 73.625,67.592C73.813,68.626 74.377,69.566 75.223,70.412C80.11,75.3 86.126,76.428 93.222,73.843C94.256,73.185 94.914,72.715 95.29,72.339C97.969,69.66 98.392,66.418 96.606,62.564C95.948,61.718 95.525,61.201 95.243,60.919Z" clip-rule="nonzero"/>
        </clipPath>
        <g clip-path="url(#_clip1)">
            <rect x="11.579" y="13.254" width="99.654" height="99.654" style="fill:url(#_Linear2);"/>
        </g>
    </g>
    <defs>
        <linearGradient id="_Linear2" x1="0" y1="0" x2="1" y2="0" gradientUnits="userSpaceOnUse" gradientTransform="matrix(99.6543,0,0,99.6543,11.5786,63.0808)"><stop offset="0" style="stop-color:rgb(240,51,210);stop-opacity:1"/><stop offset="0.69" style="stop-color:rgb(239,8,18);stop-opacity:1"/><stop offset="1" style="stop-color:rgb(239,8,18);stop-opacity:1"/></linearGradient>
    </defs>
</svg>
