<svg xmlns="http://www.w3.org/2000/svg" viewBox="0 0 500 300" width="500" height="300" fill="currentColor">
	<path fill="#94A3B8" fill-opacity="0.55" d="M218.896 189.413C220.043 189.413 220.808 190.18 220.808 191.33C220.808 191.33 220.808 191.33 220.808 191.713C220.808 194.014 220.425 195.547 220.425 196.314C220.425 195.931 220.425 195.931 220.425 195.931C220.425 197.848 219.278 202.449 216.983 209.351C216.218 211.268 215.453 212.035 215.453 212.418C216.218 214.719 217.748 215.869 220.425 215.869H221.19C225.397 215.869 229.222 213.952 232.664 210.501C233.047 209.734 233.811 208.967 234.194 208.967C234.576 208.967 234.959 209.351 235.341 209.734C234.959 210.885 233.429 212.802 229.987 215.102C226.545 216.636 224.25 217.403 222.338 217.403C221.955 217.403 221.573 217.403 220.808 217.403C220.043 217.403 218.513 217.019 216.983 216.253C216.601 215.869 215.836 215.486 215.071 214.719C215.071 214.719 215.071 215.102 214.689 215.486C213.159 217.403 211.246 218.937 208.952 219.32C207.804 219.703 207.039 219.703 206.274 219.703C203.215 219.703 201.302 218.17 200.155 215.486C200.155 215.102 200.155 215.102 200.155 214.719V213.952C200.155 212.035 201.302 210.118 203.215 208.201C204.362 207.05 206.274 206.283 208.569 206.283H210.099C210.864 206.283 211.629 206.667 213.159 207.05C212.394 208.201 212.011 208.201 212.011 207.05C212.011 207.05 212.011 206.667 212.011 206.283C212.011 203.216 212.776 200.149 213.924 196.698L215.836 192.864C216.601 191.33 217.366 190.563 218.131 189.796C218.513 189.796 218.896 189.413 218.896 189.413ZM202.067 214.335C202.067 216.253 202.832 217.403 204.745 218.17C205.127 218.17 205.509 218.17 205.509 218.17C207.804 218.17 210.099 216.636 212.011 214.335C212.394 213.569 212.394 213.185 212.394 213.185C212.776 212.035 212.394 210.501 212.011 208.967C212.011 208.967 211.629 208.967 210.864 208.967C210.481 208.584 210.099 208.201 209.334 208.201C206.274 208.201 203.597 209.734 202.45 213.185C202.45 213.569 202.067 213.952 202.067 214.335ZM214.306 204.366C214.306 203.983 214.306 203.983 214.306 204.366C214.306 204.366 214.306 205.517 214.306 207.05C214.689 209.351 214.689 210.501 214.689 210.501C214.689 210.501 215.071 210.118 215.071 209.734C215.836 208.201 216.983 203.983 218.896 197.465L219.278 192.097V191.713C218.896 191.713 218.131 193.63 216.601 197.081C215.071 199.382 214.306 202.066 214.306 204.366ZM240.313 204.366C242.226 204.75 242.99 205.133 242.99 205.9C242.608 207.05 241.461 208.584 239.548 210.118C239.166 210.501 237.254 210.885 234.576 211.651C234.959 213.185 235.724 213.952 236.489 214.719C237.254 215.102 238.401 215.486 239.931 215.486H240.313C244.52 215.486 248.345 213.569 251.787 210.118C252.552 209.351 252.934 208.967 253.317 208.584C253.699 208.584 254.082 208.967 254.464 209.734C254.082 210.885 252.552 212.802 249.11 215.102C245.668 216.636 243.373 217.403 241.461 217.403C241.078 217.403 240.696 217.403 239.931 217.403C239.166 217.403 237.636 217.019 235.724 216.253C234.576 215.486 233.811 214.335 233.047 213.185C232.664 213.185 232.664 212.418 232.282 211.268C232.282 210.501 233.047 209.351 234.194 207.434C236.106 205.9 237.254 204.75 238.401 204.75C239.166 204.366 239.931 204.366 240.313 204.366ZM234.959 209.734C235.341 209.734 236.489 209.351 238.019 208.584C239.548 207.434 240.313 206.667 240.313 206.283C238.401 206.667 236.871 207.817 235.724 208.967C235.341 208.967 234.959 209.351 234.959 209.734ZM257.524 206.283C259.054 206.283 260.201 207.05 260.966 208.584C262.113 210.885 262.878 212.418 264.026 213.952H264.408C264.408 213.952 264.791 213.569 265.938 212.418C267.468 210.885 269.38 209.734 271.292 209.351C271.675 209.351 272.057 209.351 272.44 208.967C273.205 208.967 273.587 209.351 273.587 210.118C273.587 210.501 272.44 211.268 270.528 211.651C269.763 212.035 268.233 212.802 266.703 214.719C266.32 215.486 265.938 215.869 265.938 215.869C265.938 216.253 266.32 217.019 267.085 218.17C267.085 218.553 267.85 220.087 269.763 223.538C270.145 224.688 270.528 225.838 270.91 227.372C271.675 229.289 271.675 231.206 271.675 233.123C271.675 236.574 271.292 238.875 270.91 240.025C270.528 241.942 270.145 243.476 269.763 244.243C268.998 245.393 268.233 246.543 267.085 248.077C265.938 248.844 264.791 249.227 263.261 249.227C261.349 249.227 259.436 248.46 258.289 246.927C257.906 246.543 256.759 245.01 255.612 242.326C255.229 240.792 254.847 239.258 254.847 237.725C254.847 236.958 255.229 235.041 255.612 232.74C255.612 232.74 255.994 231.973 255.994 230.439C257.524 225.838 259.054 222.004 260.966 218.937C262.496 216.636 262.878 215.869 262.878 215.486C262.878 214.719 262.113 213.952 260.966 212.418H261.349L260.584 214.335C259.436 216.636 258.671 217.786 258.289 217.786C257.524 218.17 256.759 218.553 255.994 218.553H255.612C254.082 218.553 252.552 217.786 251.787 215.869C251.405 215.486 251.405 215.102 251.405 214.719V214.335C251.405 211.651 252.552 208.967 255.229 207.05C255.612 206.283 256.759 206.283 257.524 206.283ZM252.934 213.952C252.934 215.486 253.317 216.253 254.082 216.636C254.464 216.636 254.847 217.019 255.229 217.019C256.377 217.019 257.524 215.869 258.289 213.569C258.289 213.185 258.671 212.418 259.054 210.885C259.054 208.967 258.671 208.201 258.289 208.201C258.289 208.201 258.289 208.201 257.906 208.201H257.524C256.377 208.201 255.229 208.967 254.082 210.885C253.317 211.651 252.934 212.802 252.934 213.952ZM256.759 237.341C256.759 240.025 257.906 243.092 259.819 245.776C260.584 246.927 261.731 247.31 263.261 247.31C265.556 247.31 267.085 245.393 268.233 241.559C268.998 239.258 269.38 236.958 269.38 233.89C269.38 228.906 267.85 223.538 264.408 217.786C264.408 217.403 264.026 217.403 264.026 217.403C263.643 217.403 262.878 218.937 261.731 221.621C260.201 224.305 259.436 226.989 258.289 229.673C257.141 233.123 256.759 235.807 256.759 237.341ZM272.44 208.967C273.205 208.967 273.587 209.734 273.587 210.118V210.501C273.205 212.035 272.44 213.185 272.057 213.569C271.292 214.719 270.91 215.869 270.91 216.636C270.91 217.019 271.292 217.403 272.057 217.403C273.97 217.403 276.647 215.869 280.089 212.802C280.471 212.418 280.471 212.418 281.236 212.035C282.001 211.268 282.766 210.501 283.914 209.351H284.679C285.443 209.351 285.443 209.734 285.443 210.118C285.443 210.501 285.061 211.268 283.914 212.035C283.531 212.802 282.766 213.185 282.001 213.952C278.177 217.403 275.117 219.32 272.44 219.32C270.528 219.32 269.38 218.553 269.38 216.636C269.38 215.869 269.763 214.719 270.145 213.185C271.292 210.501 272.057 208.967 272.057 208.967C271.675 208.967 272.057 208.967 272.44 208.967ZM277.029 201.682C277.412 201.682 277.794 202.066 277.794 202.833C277.794 203.599 277.412 204.366 276.264 204.75C276.264 204.75 275.882 204.75 275.117 205.133C274.352 205.133 273.587 204.366 273.587 203.983C273.587 203.216 274.352 202.449 275.882 202.066C276.264 201.682 276.647 201.682 277.029 201.682ZM290.415 204.75H291.18C292.328 204.75 293.093 205.133 293.858 206.283C293.858 206.667 294.24 207.817 294.622 209.734C295.387 211.651 296.917 212.418 298.83 212.418C300.742 212.418 302.654 211.268 304.949 208.967C305.331 208.967 305.714 208.967 306.096 208.967C306.479 209.351 306.861 209.351 306.861 209.734C306.861 210.118 306.479 210.885 305.331 211.651C304.184 212.802 302.272 213.569 300.359 214.335C299.977 214.335 299.594 214.335 299.212 214.335H298.83C296.152 214.335 294.24 213.185 292.71 210.501C292.71 210.501 292.328 211.268 291.563 212.418C290.033 214.719 288.503 215.869 286.591 215.869C285.061 215.869 284.296 215.102 283.531 213.569C283.531 213.185 283.149 212.802 283.149 212.418C283.149 210.501 283.914 208.967 285.826 207.05C286.973 205.517 288.503 204.75 290.415 204.75ZM285.061 212.035C285.061 213.185 285.443 213.569 286.591 213.952H286.973C288.503 213.952 290.033 212.418 291.563 209.351C291.945 208.201 292.328 207.434 292.328 207.05V206.667C292.328 206.667 291.945 206.667 291.18 206.667C288.886 206.667 287.356 207.817 286.208 209.734C285.443 210.501 285.061 211.268 285.061 212.035ZM306.479 208.201C306.861 208.201 307.244 208.584 307.244 208.967C307.244 208.967 306.861 210.118 306.096 211.651C305.331 212.802 305.331 213.569 305.331 213.569V213.185C305.331 213.185 305.331 212.802 306.479 212.035C307.626 211.268 308.391 211.268 308.773 211.268H309.156C310.686 211.268 311.451 212.035 311.833 213.952C311.833 213.952 312.216 213.569 312.598 212.418C313.745 211.651 314.51 211.268 315.275 211.268C316.423 211.268 317.57 212.035 318.335 213.569C318.717 214.335 319.1 214.719 319.865 215.486C321.012 216.253 322.16 217.019 322.924 217.019C324.837 217.019 326.367 216.253 327.896 214.719C329.426 213.569 330.191 212.418 330.574 211.651C331.339 210.501 332.103 209.734 332.486 209.734C332.868 209.734 333.251 210.118 333.633 210.501C333.251 211.651 332.103 213.569 330.191 215.102C327.514 217.403 325.219 218.937 323.689 218.937H322.924C321.012 218.937 319.1 217.786 317.188 215.869C316.04 214.335 315.658 213.569 315.275 213.569C314.51 213.569 313.745 214.719 312.981 216.636C312.216 218.17 311.833 218.937 311.451 218.937H311.068C310.303 218.937 309.921 217.786 309.538 215.869C309.156 214.335 309.156 213.569 308.773 213.569C307.626 213.569 306.096 215.486 303.037 219.703C302.654 220.47 301.889 220.47 301.889 220.47C301.124 220.47 300.742 220.087 300.742 219.32C301.889 216.253 303.037 213.185 304.566 210.118C305.331 208.584 305.714 208.201 306.479 208.201Z" />
	<path fill="#94A3B8" fill-opacity="0.4" fill-rule="evenodd" clip-rule="evenodd" d="M189.799 204.192H187.86L185.088 210.986L181.918 204.192H179.937L184.164 213.251L181.173 220.581C180.489 220.692 179.787 220.749 179.071 220.749C171.852 220.749 166 214.897 166 207.678C166 204.048 167.48 200.763 169.869 198.394V212.68H171.664V211.403C172.538 212.329 173.777 212.906 175.15 212.906C177.797 212.906 179.943 210.76 179.943 208.113C179.943 205.466 177.797 203.321 175.15 203.321C173.777 203.321 172.538 203.898 171.664 204.824V196.906C173.77 195.456 176.321 194.606 179.071 194.606C186.291 194.606 192.143 200.459 192.143 207.678C192.143 213.405 188.46 218.271 183.333 220.039L186.113 213.225L186.129 213.218L186.122 213.203L189.799 204.192ZM178.345 208.113C178.345 209.878 176.915 211.309 175.15 211.309C173.385 211.309 171.955 209.878 171.955 208.113C171.955 206.349 173.385 204.918 175.15 204.918C176.915 204.918 178.345 206.349 178.345 208.113Z" />
	<path fill="url(#kiezip_logo)" d="M251.1 155V142.5L285 94H253.1V80.5H304.6V93L270.8 141.5H305.6V155H251.1ZM312.238 155V100.4H327.238V155H312.238ZM312.238 95.5V80.5H327.238V95.5H312.238ZM338.215 175V100.4H352.215V110.8L350.915 107.8C352.715 105.067 355.148 102.967 358.215 101.5C361.348 99.9667 364.915 99.2 368.915 99.2C374.115 99.2 378.815 100.467 383.015 103C387.215 105.533 390.548 108.967 393.015 113.3C395.482 117.567 396.715 122.367 396.715 127.7C396.715 132.967 395.482 137.767 393.015 142.1C390.615 146.433 387.315 149.867 383.115 152.4C378.915 154.933 374.148 156.2 368.815 156.2C365.082 156.2 361.615 155.533 358.415 154.2C355.282 152.8 352.748 150.767 350.815 148.1L353.215 145V175H338.215ZM367.015 142.7C369.815 142.7 372.282 142.067 374.415 140.8C376.548 139.533 378.215 137.767 379.415 135.5C380.615 133.233 381.215 130.633 381.215 127.7C381.215 124.767 380.615 122.2 379.415 120C378.215 117.733 376.548 115.967 374.415 114.7C372.282 113.367 369.815 112.7 367.015 112.7C364.348 112.7 361.948 113.333 359.815 114.6C357.748 115.867 356.115 117.633 354.915 119.9C353.782 122.167 353.215 124.767 353.215 127.7C353.215 130.633 353.782 133.233 354.915 135.5C356.115 137.767 357.748 139.533 359.815 140.8C361.948 142.067 364.348 142.7 367.015 142.7Z" />
	<path d="M108.8 155V80.5H116.8V124L115 123.1L152.5 80.5H162.5L132.4 114.7L132.8 109L164.3 155H154.7L129.3 118.3L116.8 132.5V155H108.8ZM173.13 155V101.4H180.63V155H173.13ZM173.13 91.5V80.5H180.63V91.5H173.13ZM220.381 156.2C215.381 156.2 210.848 155 206.781 152.6C202.781 150.133 199.615 146.767 197.281 142.5C194.948 138.233 193.781 133.4 193.781 128C193.781 122.6 194.915 117.833 197.181 113.7C199.448 109.5 202.515 106.2 206.381 103.8C210.315 101.4 214.715 100.2 219.581 100.2C223.448 100.2 226.881 100.933 229.881 102.4C232.948 103.8 235.548 105.733 237.681 108.2C239.815 110.6 241.448 113.333 242.581 116.4C243.715 119.4 244.281 122.5 244.281 125.7C244.281 126.367 244.248 127.133 244.181 128C244.115 128.8 244.015 129.633 243.881 130.5H198.581V123.5H239.581L235.981 126.5C236.581 122.833 236.148 119.567 234.681 116.7C233.281 113.767 231.248 111.467 228.581 109.8C225.915 108.067 222.915 107.2 219.581 107.2C216.248 107.2 213.148 108.067 210.281 109.8C207.481 111.533 205.281 113.967 203.681 117.1C202.081 120.167 201.448 123.833 201.781 128.1C201.448 132.367 202.115 136.1 203.781 139.3C205.515 142.433 207.848 144.867 210.781 146.6C213.781 148.333 216.981 149.2 220.381 149.2C224.315 149.2 227.615 148.267 230.281 146.4C232.948 144.533 235.115 142.2 236.781 139.4L243.181 142.8C242.115 145.2 240.481 147.433 238.281 149.5C236.081 151.5 233.448 153.133 230.381 154.4C227.381 155.6 224.048 156.2 220.381 156.2Z" />
	<defs>
		<linearGradient id="kiezip_logo" x1="250" y1="51" x2="422.829" y2="109.154" gradientUnits="userSpaceOnUse">
			<stop stop-color="#22D3EE" />
			<stop stop-color="#2563EB" offset="1"/>
		</linearGradient>
	</defs>
</svg>